<svg version="1.1" id="Layer_1" xmlns="http://www.w3.org/2000/svg" xmlns:xlink="http://www.w3.org/1999/xlink" x="0px" y="0px"
	 width="100%" viewBox="0 0 1024 336" enable-background="new 0 0 1024 336" xml:space="preserve">
<path fill="#5D3FD3" opacity="1.000000" stroke="none" 
	d="
M84.941360,95.819092 
	C131.377228,72.143456 187.422913,98.512459 199.537109,150.631134 
	C210.184982,196.441193 178.927444,241.761856 132.592072,248.525772 
	C87.836464,255.059052 40.900715,223.003464 39.487537,169.905930 
	C38.602562,136.654526 55.316528,111.936905 84.941360,95.819092 
M107.514107,117.385040 
	C104.017654,117.387405 100.518356,117.299492 97.025307,117.409744 
	C87.987732,117.694992 83.137321,122.385651 83.075890,131.452682 
	C82.945053,150.762833 83.127396,170.074997 83.024467,189.385498 
	C83.002991,193.415421 84.377594,195.055954 88.542938,194.939529 
	C96.861397,194.707001 105.190788,194.800766 113.514938,194.860535 
	C118.745369,194.898087 119.903000,196.701828 117.459213,201.217316 
	C115.138771,205.504868 114.679878,209.651123 117.171249,213.999390 
	C120.629860,220.035812 129.109741,223.860260 135.594910,222.228485 
	C143.722687,220.183411 148.949142,214.296021 148.998077,206.409317 
	C149.122025,186.430847 148.982391,166.450867 149.046265,146.471817 
	C149.069122,139.324020 148.485931,132.126709 149.865417,125.046448 
	C151.320465,117.578255 151.282700,117.396461 143.473679,117.379440 
	C131.818893,117.354042 120.163986,117.382294 107.514107,117.385040 
M109.081612,209.142746 
	C108.741547,205.979309 109.622139,202.060242 104.452126,201.980438 
	C94.990334,201.834412 85.528404,201.491623 76.068237,201.543213 
	C72.134911,201.564636 69.001633,203.597504 67.861313,207.621140 
	C66.735146,211.594803 68.413826,214.782089 71.425102,217.273544 
	C73.681732,219.140625 76.390320,219.776337 79.332169,219.748016 
	C86.640007,219.677658 93.948936,219.718369 101.257431,219.719955 
	C111.578224,219.722214 111.578224,219.724335 109.081612,209.142746 
M169.086090,125.610977 
	C168.370453,124.522453 167.852509,123.202873 166.901611,122.389305 
	C164.192963,120.071793 159.655380,120.553215 157.702316,123.540886 
	C155.800262,126.450531 153.714828,130.374969 156.846588,132.936523 
	C159.725449,135.291229 164.301071,134.679260 167.806122,133.383133 
	C170.941971,132.223541 169.580856,128.900726 169.086090,125.610977 
z"/>
<path fill="#5D3FD3" opacity="1.000000" stroke="none" 
	d="
M238.658569,140.000122 
	C238.662048,134.333710 238.716202,129.166473 238.645142,124.000946 
	C238.612122,121.600494 239.456863,120.053467 242.009399,120.083115 
	C254.977859,120.233780 267.980499,118.885056 280.895172,121.297813 
	C312.968018,127.289749 321.999817,156.657852 317.093414,178.880249 
	C312.415131,200.069733 295.440308,213.549118 272.617126,214.229660 
	C262.958893,214.517670 253.283112,214.183090 243.621201,214.397415 
	C239.542511,214.487885 238.597275,212.727783 238.616287,208.997894 
	C238.732758,186.165787 238.664597,163.332733 238.658569,140.000122 
M257.120209,193.157303 
	C256.720245,197.315781 258.759644,198.936066 262.742035,198.654953 
	C264.233765,198.549683 265.740509,198.680023 267.238678,198.639771 
	C294.411285,197.909973 302.947479,178.772644 297.611877,156.699738 
	C294.023621,141.855423 283.373108,135.798126 265.334747,136.089813 
	C258.306824,136.203461 257.174744,137.306747 257.161163,144.249023 
	C257.129883,160.241989 257.126556,176.234985 257.120209,193.157303 
z"/>
<path fill="#5D3FD3" opacity="1.000000" stroke="none" 
	d="
M597.361572,197.089630 
	C590.417053,211.243820 577.618713,217.795914 562.169800,214.843094 
	C557.410889,213.933487 556.119141,215.526306 556.218628,219.823318 
	C556.330200,224.645996 556.143005,229.475281 556.233154,234.298935 
	C556.291992,237.445511 554.904053,238.736526 551.789978,238.924576 
	C539.509766,239.666214 538.846802,239.083572 538.856750,226.909958 
	C538.875977,203.281158 538.990601,179.651154 538.768311,156.024460 
	C538.723511,151.265442 540.375549,149.306030 544.905518,148.210068 
	C554.226807,145.954926 563.604980,145.077103 573.113892,145.785858 
	C587.976807,146.893723 598.702942,157.875839 600.128601,173.670609 
	C600.832520,181.469330 600.766296,189.318573 597.361572,197.089630 
M556.235474,178.503143 
	C556.244934,183.814102 556.279419,189.125168 556.252991,194.435944 
	C556.240295,196.988617 556.984070,199.247238 559.570984,199.964172 
	C566.265869,201.819611 576.268250,201.658508 580.666382,192.664185 
	C583.280212,187.318878 583.247253,181.749359 582.895142,176.115341 
	C582.125122,163.796463 573.450256,157.518478 561.297485,160.075394 
	C557.768982,160.817795 556.052734,162.328613 556.229126,166.056488 
	C556.409363,169.864731 556.249939,173.689026 556.235474,178.503143 
z"/>
<path fill="#5D3FD3" opacity="1.000000" stroke="none" 
	d="
M733.905945,137.770264 
	C720.824158,143.243774 715.253601,158.779007 717.761475,174.077530 
	C721.507202,196.927078 741.009583,203.568863 761.596191,196.064926 
	C767.538574,193.898880 767.486389,193.755630 769.238281,199.954376 
	C772.023254,209.808563 771.851990,210.453339 762.079285,212.988586 
	C743.071777,217.919525 725.294739,216.291351 710.700073,201.569672 
	C703.004272,193.806778 699.450439,183.959427 698.757935,173.181107 
	C698.211670,164.678726 698.726501,156.269806 701.755554,148.089432 
	C709.000305,128.523788 727.035889,118.166092 748.355103,119.216995 
	C754.555603,119.522644 760.497437,121.050842 766.295593,123.280334 
	C769.290466,124.431938 770.355286,125.925537 769.410278,129.309860 
	C766.533142,139.612717 766.668701,139.656723 756.327209,136.760162 
	C748.875671,134.673050 741.520142,134.948242 733.905945,137.770264 
z"/>
<path fill="#5D3FD3" opacity="1.000000" stroke="none" 
	d="
M815.677551,200.742218 
	C820.975464,200.399841 825.363831,198.196930 829.832581,197.083878 
	C830.330688,197.460724 830.724365,197.602295 830.831238,197.861923 
	C835.923767,210.236221 835.143005,211.660736 822.058044,214.276855 
	C808.044861,217.078537 795.184448,215.501114 784.752380,204.582306 
	C772.741516,192.011093 772.028076,158.751678 793.763000,148.597519 
	C809.550415,141.221939 834.082520,144.759109 836.083252,172.497726 
	C837.228210,188.372055 836.628174,185.047409 824.577148,185.206772 
	C816.580811,185.312531 808.581055,185.149689 800.584290,185.238342 
	C795.057617,185.299591 793.789124,187.535248 796.382446,192.495117 
	C800.441528,200.258286 807.578125,201.138718 815.677551,200.742218 
M795.200500,169.620102 
	C795.272217,172.338776 797.119873,172.840225 799.300903,172.855606 
	C804.296448,172.890839 809.294861,173.001785 814.287170,172.880722 
	C819.354431,172.757843 820.777100,170.292969 818.432739,165.769135 
	C816.021667,161.116516 811.858826,159.045410 806.864929,159.502213 
	C801.152405,160.024765 796.817627,162.858627 795.200500,169.620102 
z"/>
<path fill="#5D3FD3" opacity="1.000000" stroke="none" 
	d="
M358.877136,200.498703 
	C367.235229,201.664932 374.828674,200.239197 381.989105,196.769836 
	C384.601715,200.335861 384.999878,204.042435 385.907715,207.527939 
	C386.494110,209.779099 384.779236,210.811157 382.988495,211.533234 
	C371.254700,216.264633 359.301208,217.276917 347.499939,212.286423 
	C337.007843,207.849564 331.259430,199.310989 329.417023,188.203430 
	C327.235870,175.053391 329.068481,162.772614 339.210907,153.209244 
	C348.681274,144.279556 360.259430,143.436356 371.894531,147.507324 
	C383.424377,151.541473 387.684357,161.476349 388.147003,172.779297 
	C388.774139,188.099472 389.139709,184.980789 376.352753,185.206848 
	C368.357117,185.348221 360.355957,185.147598 352.358765,185.236465 
	C347.050781,185.295425 345.963165,187.314728 348.286926,192.213043 
	C350.368286,196.600388 353.967285,199.050537 358.877136,200.498703 
M365.148560,172.902466 
	C367.410278,172.727097 370.178284,173.370911 371.224335,170.609695 
	C372.278107,167.828094 370.791870,165.313797 369.053925,163.309464 
	C365.953339,159.733582 361.756256,158.666885 357.250153,159.634155 
	C352.798767,160.589645 349.313599,163.044037 347.742950,167.585587 
	C346.618073,170.838303 347.549194,172.845978 351.245239,172.894272 
	C355.571198,172.950806 359.898407,172.910950 365.148560,172.902466 
z"/>
<path fill="#5D3FD3" opacity="1.000000" stroke="none" 
	d="
M470.371765,156.458801 
	C478.869141,144.816177 495.852142,143.576828 507.060791,147.109482 
	C519.115112,150.908630 526.631470,162.097916 527.266663,176.390686 
	C527.694214,186.011902 526.673828,195.327957 520.621765,203.408493 
	C512.875793,213.750717 502.044006,216.586975 490.072388,214.966232 
	C477.695740,213.290649 469.027893,206.260559 465.365875,193.977768 
	C461.468567,180.906006 462.423676,168.368576 470.371765,156.458801 
M480.310883,176.894821 
	C479.968719,182.795609 480.499176,188.551971 483.454559,193.821304 
	C486.251953,198.808899 490.598511,200.991776 496.291565,200.754120 
	C501.683746,200.529037 505.463593,197.877075 507.608826,193.091827 
	C511.163910,185.161819 511.606598,177.018417 508.444366,168.832977 
	C506.119415,162.814926 501.197510,159.407883 495.072052,159.395737 
	C489.436371,159.384583 484.533630,162.883514 482.276703,168.812729 
	C481.396729,171.124496 480.980743,173.612900 480.310883,176.894821 
z"/>
<path fill="#5D3FD3" opacity="1.000000" stroke="none" 
	d="
M656.736938,198.286880 
	C653.662292,211.437698 643.492065,215.050034 632.059692,215.695236 
	C625.276184,216.078079 618.527222,214.390091 612.030701,212.087051 
	C608.879700,210.970001 607.774475,209.158737 609.090637,206.002808 
	C609.473816,205.083893 609.752441,204.120255 610.059448,203.170776 
	C612.006897,197.147110 611.994629,197.180710 618.219543,199.084076 
	C623.201416,200.607361 628.303589,201.326324 633.499573,200.646454 
	C636.398499,200.267151 639.257874,199.365753 639.738159,195.927933 
	C640.190186,192.692184 638.214050,190.447952 635.510742,189.237030 
	C631.421692,187.405319 627.126953,186.038986 622.958435,184.377411 
	C612.532837,180.221771 607.271667,171.830505 609.077942,162.351486 
	C610.930969,152.626907 619.106995,146.043564 629.892822,145.700150 
	C636.720398,145.482758 643.520691,145.450119 650.129089,147.761627 
	C653.447937,148.922516 654.493958,150.662033 653.465637,154.156616 
	C650.954956,162.689056 651.080444,162.684326 642.372681,160.563568 
	C638.334900,159.580170 634.257874,158.483612 630.146545,160.330154 
	C628.078857,161.258820 626.391174,162.504822 626.199402,165.012741 
	C626.007202,167.526245 627.435242,169.037872 629.421936,170.189987 
	C633.638489,172.635132 638.423584,173.608368 642.902649,175.376068 
	C653.465759,179.544907 658.032837,186.884521 656.736938,198.286880 
z"/>
<path fill="#5D3FD3" opacity="1.000000" stroke="none" 
	d="
M401.822418,174.077408 
	C398.584839,165.176697 395.262238,156.703522 393.477539,147.175827 
	C398.740753,146.402023 403.524719,146.560257 408.281311,146.889374 
	C410.819672,147.064987 411.025055,149.387115 411.540833,151.325439 
	C414.754700,163.403748 418.812927,175.203079 423.383484,186.828949 
	C424.092590,188.632675 424.481384,190.703140 426.501770,191.615784 
	C429.018799,190.957123 429.269379,188.773819 430.009064,186.995758 
	C434.810150,175.455353 438.871246,163.643753 442.319977,151.643524 
	C443.391846,147.913986 445.126251,146.623734 448.953705,146.646851 
	C463.507446,146.734787 461.101044,146.455215 457.413116,158.205612 
	C451.870605,175.865173 444.343811,192.734039 436.255463,209.365814 
	C434.613434,212.742294 432.672119,214.687317 428.665192,214.352036 
	C424.343231,213.990387 420.085205,215.197601 417.333588,209.644348 
	C411.633087,198.139725 406.289398,186.524185 401.822418,174.077408 
z"/>
<path fill="#5D3FD3" opacity="1.000000" stroke="none" 
	d="
M959.359863,145.742386 
	C966.493347,145.426300 973.089966,145.631882 979.593262,147.561661 
	C983.680176,148.774399 985.819580,150.574890 983.622498,155.003693 
	C983.257996,155.738419 983.002869,156.573685 982.906067,157.387344 
	C982.300720,162.473099 979.808655,163.047043 975.351257,161.268204 
	C970.875793,159.482147 966.077637,158.648148 961.184753,160.117874 
	C958.735352,160.853607 956.913818,162.225922 956.537842,164.771912 
	C956.167969,167.276657 957.976990,168.712326 959.892761,169.855942 
	C963.785095,172.179550 968.183350,173.282104 972.359070,174.923218 
	C984.376404,179.646317 988.902954,186.764099 987.190979,198.217194 
	C985.773438,207.701004 978.024414,214.076401 966.522949,215.230392 
	C958.075439,216.077988 949.959229,214.516129 941.970337,211.927505 
	C939.372253,211.085663 938.825195,209.668167 939.622681,206.996918 
	C942.511902,197.318405 942.426270,197.258362 952.136719,199.861267 
	C956.389771,201.001282 960.688721,201.156265 965.010376,200.650208 
	C967.632263,200.343185 969.844604,199.151901 970.577332,196.376343 
	C971.382385,193.326279 969.828735,191.265427 967.361755,189.732712 
	C963.487854,187.325867 958.998962,186.503113 954.804871,184.925339 
	C946.223938,181.697266 940.086609,176.567093 939.694580,166.613022 
	C939.255249,155.460831 945.798706,148.342010 959.359863,145.742386 
z"/>
<path fill="#5D3FD3" opacity="1.000000" stroke="none" 
	d="
M896.780396,176.000061 
	C896.785278,163.353485 896.890259,151.205719 896.749146,139.060822 
	C896.703979,135.170380 897.614380,133.193314 901.995789,132.367081 
	C913.849609,130.131805 913.898865,129.857025 914.175903,141.680801 
	C914.258545,145.207535 915.295837,147.035675 919.082642,146.712189 
	C921.064880,146.542831 923.073547,146.683853 925.070312,146.684677 
	C931.713806,146.687363 931.934692,146.914398 931.982971,153.791061 
	C932.032104,160.797440 931.723022,161.115982 924.794678,161.199249 
	C914.251343,161.325989 914.247803,161.326004 914.242676,171.998123 
	C914.239807,177.988373 914.198242,183.979263 914.268921,189.968735 
	C914.364502,198.076462 917.334167,200.555298 925.449097,199.944717 
	C927.590637,199.783600 930.322815,197.529190 931.891235,200.063248 
	C933.830505,203.196426 933.571289,207.100037 933.733398,210.729553 
	C933.790894,212.015076 932.420227,212.619980 931.307556,212.944473 
	C924.358276,214.971069 917.420288,216.061264 910.238159,213.714569 
	C902.681519,211.245468 899.182312,205.694061 897.629822,198.399719 
	C896.085938,191.145782 897.048462,183.800369 896.780396,176.000061 
z"/>
<path fill="#5D3FD3" opacity="1.000000" stroke="none" 
	d="
M847.840332,190.000137 
	C847.830872,178.190979 847.875916,166.881363 847.784973,155.572845 
	C847.762573,152.796249 848.325623,150.606842 851.268494,149.762619 
	C861.508911,146.824936 871.761536,144.190643 882.618347,145.655914 
	C886.751221,146.213715 888.264343,147.865967 886.844055,151.945084 
	C886.359314,153.337067 886.256409,154.868622 886.037476,156.345062 
	C885.594421,159.333344 884.021057,160.375366 880.908142,160.294159 
	C865.056580,159.880539 865.059753,159.958252 865.069824,175.504852 
	C865.077026,186.647827 864.956848,197.792465 865.123230,208.932922 
	C865.186279,213.151825 864.007874,214.842728 859.383606,214.526031 
	C847.903931,213.739838 847.884033,213.953552 847.839905,202.474670 
	C847.824585,198.483215 847.842163,194.491623 847.840332,190.000137 
z"/>
<path fill="#5D3FD3" opacity="1.000000" stroke="none" 
	d="
M138.883972,177.059814 
	C144.615585,184.189911 144.411789,188.414978 138.247070,196.332977 
	C141.389969,202.131195 141.562805,208.647263 143.222260,215.220337 
	C140.061935,215.674591 137.960388,214.117889 136.124451,212.756256 
	C133.036209,210.465836 130.685028,210.552185 127.939018,213.330048 
	C126.413452,214.873337 124.877831,216.834595 122.021568,217.202560 
	C121.049225,211.284790 122.906189,205.628021 122.906708,199.907394 
	C122.906906,197.776535 122.616959,196.203262 121.332886,194.473282 
	C116.912941,188.518585 117.061523,182.446198 121.475693,177.713791 
	C125.964043,172.901855 132.048965,172.576920 138.883972,177.059814 
z"/>
<path fill="#5D3FD3" opacity="1.000000" stroke="none" 
	d="
M130.812042,143.209213 
	C119.543716,143.195419 108.748970,143.196793 97.954453,143.146744 
	C96.472511,143.139877 94.953896,143.034027 93.521461,142.687744 
	C92.183075,142.364212 91.010475,141.503113 91.347786,139.858856 
	C91.719482,138.046982 93.230812,137.684753 94.799568,137.667908 
	C102.271935,137.587646 109.744576,137.516815 117.217293,137.491760 
	C122.531082,137.473938 127.845894,137.490326 133.158691,137.582092 
	C135.181885,137.617050 138.048843,136.851074 138.082596,140.126129 
	C138.113403,143.115509 135.413300,142.975067 133.277481,143.164215 
	C132.617432,143.222672 131.949829,143.195892 130.812042,143.209213 
z"/>
<path fill="#5D3FD3" opacity="1.000000" stroke="none" 
	d="
M111.000877,150.649719 
	C118.658638,150.639999 125.817062,150.581299 132.974167,150.653061 
	C135.025146,150.673630 137.909073,150.167297 137.997879,153.269714 
	C138.083435,156.257675 135.366058,156.242462 133.196884,156.247864 
	C120.878632,156.278580 108.560196,156.270691 96.241943,156.235229 
	C94.064201,156.228958 91.385109,156.238281 91.424744,153.269882 
	C91.460892,150.562576 94.031227,150.708176 96.018867,150.687210 
	C100.845848,150.636261 105.673599,150.657913 111.000877,150.649719 
z"/>
<path fill="#5D3FD3" opacity="1.000000" stroke="none" 
	d="
M117.819687,163.658569 
	C120.785248,164.192383 125.090141,162.216370 125.134483,166.328415 
	C125.183311,170.856766 120.708168,169.162766 118.078308,169.244217 
	C111.113503,169.459991 104.136627,169.361328 97.166008,169.273117 
	C94.814209,169.243362 91.383247,169.967316 91.423897,166.356766 
	C91.460129,163.138199 94.718666,163.732086 96.929626,163.704071 
	C103.734238,163.617859 110.540543,163.664261 117.819687,163.658569 
z"/>
</svg>